<svg id="Layer_1" enable-background="new 0 0 512 512" height="512" viewBox="0 0 512 512" width="512" xmlns="http://www.w3.org/2000/svg"><g><path d="m447 124.101c4.143 0 7.5-3.358 7.5-7.5v-54.526c0-21.659-17.65-39.28-39.345-39.28h-111.683v-15.295c0-4.142-3.357-7.5-7.5-7.5h-79.943c-4.143 0-7.5 3.358-7.5 7.5v15.295h-111.684c-21.694 0-39.345 17.621-39.345 39.28v410.645c0 21.659 17.65 39.28 39.345 39.28h318.311c21.694 0 39.345-17.621 39.345-39.28v-316.643c0-4.142-3.357-7.5-7.5-7.5s-7.5 3.358-7.5 7.5v316.643c0 13.388-10.921 24.28-24.345 24.28h-318.311c-13.424 0-24.345-10.892-24.345-24.28v-410.645c0-13.388 10.921-24.28 24.345-24.28h59.899v19.192h-57.482c-4.143 0-7.5 3.358-7.5 7.5v324.094c0 4.142 3.357 7.5 7.5 7.5s7.5-3.358 7.5-7.5v-316.594h49.982v15.295c0 4.142 3.357 7.5 7.5 7.5h183.512c4.143 0 7.5-3.358 7.5-7.5v-15.295h49.982v390.821h-298.476v-34.879c0-4.142-3.357-7.5-7.5-7.5s-7.5 3.358-7.5 7.5v42.379c0 4.142 3.357 7.5 7.5 7.5h313.477c4.143 0 7.5-3.358 7.5-7.5v-405.821c0-4.142-3.357-7.5-7.5-7.5h-57.482v-19.192h59.899c13.424 0 24.345 10.892 24.345 24.28v54.525c-.001 4.143 3.356 7.501 7.499 7.501zm-223.472-109.101h64.943v30.59h-64.943zm116.728 64.782h-168.512v-41.987h36.784v15.295c0 4.142 3.357 7.5 7.5 7.5h79.943c4.143 0 7.5-3.358 7.5-7.5v-15.295h36.784v41.987z"/><path d="m274.599 124.521h-37.402c-4.143 0-7.5 3.358-7.5 7.5v24.11h-24.121c-4.143 0-7.5 3.358-7.5 7.5v37.269c0 4.142 3.357 7.5 7.5 7.5h24.121v24.11c0 4.142 3.357 7.5 7.5 7.5h37.402c4.143 0 7.5-3.358 7.5-7.5v-24.11h24.326c4.143 0 7.5-3.358 7.5-7.5v-37.269c0-4.142-3.357-7.5-7.5-7.5h-24.326v-24.11c0-4.142-3.358-7.5-7.5-7.5zm24.326 46.61v22.269h-24.326c-4.143 0-7.5 3.358-7.5 7.5v24.11h-22.402v-24.11c0-4.142-3.357-7.5-7.5-7.5h-24.121v-22.269h24.121c4.143 0 7.5-3.358 7.5-7.5v-24.11h22.402v24.11c0 4.142 3.357 7.5 7.5 7.5z"/><path d="m132.901 277.652c0 4.142 3.357 7.5 7.5 7.5h237.329c4.143 0 7.5-3.358 7.5-7.5s-3.357-7.5-7.5-7.5h-237.329c-4.142 0-7.5 3.358-7.5 7.5z"/><path d="m140.401 330.152h217.329c4.143 0 7.5-3.358 7.5-7.5s-3.357-7.5-7.5-7.5h-217.329c-4.143 0-7.5 3.358-7.5 7.5s3.358 7.5 7.5 7.5z"/><path d="m140.401 375.081h237.329c4.143 0 7.5-3.358 7.5-7.5s-3.357-7.5-7.5-7.5h-237.329c-4.143 0-7.5 3.358-7.5 7.5s3.358 7.5 7.5 7.5z"/><path d="m377.73 423.081h-46.677c-4.143 0-7.5 3.358-7.5 7.5s3.357 7.5 7.5 7.5h46.677c4.143 0 7.5-3.358 7.5-7.5s-3.357-7.5-7.5-7.5z"/><path d="m269.296 423.081c-4.143 0-7.5 3.358-7.5 7.5s3.357 7.5 7.5 7.5h31.676c4.143 0 7.5-3.358 7.5-7.5s-3.357-7.5-7.5-7.5z"/></g></svg>