<svg id="Capa_1" enable-background="new 0 0 512 512" height="512" viewBox="0 0 512 512" width="512" xmlns="http://www.w3.org/2000/svg"><g><path d="m81.885 198.692c5.522 0 10-4.478 10-10v-12.982c0-5.522-4.478-10-10-10s-10 4.478-10 10v12.982c0 5.523 4.477 10 10 10z"/><path d="m145.947 198.692c5.522 0 10-4.478 10-10v-12.982c0-5.522-4.478-10-10-10s-10 4.478-10 10v12.982c0 5.523 4.478 10 10 10z"/><path d="m210.037 198.692c5.522 0 10-4.478 10-10v-12.982c0-5.522-4.478-10-10-10s-10 4.478-10 10v12.982c0 5.523 4.478 10 10 10z"/><path d="m274.127 198.692c5.522 0 10-4.478 10-10v-12.982c0-5.522-4.478-10-10-10s-10 4.478-10 10v12.982c0 5.523 4.477 10 10 10z"/><path d="m81.885 256.32c5.522 0 10-4.478 10-10v-12.954c0-5.522-4.478-10-10-10s-10 4.478-10 10v12.954c0 5.523 4.477 10 10 10z"/><path d="m145.947 256.32c5.522 0 10-4.478 10-10v-12.954c0-5.522-4.478-10-10-10s-10 4.478-10 10v12.954c0 5.523 4.478 10 10 10z"/><path d="m210.037 256.32c5.522 0 10-4.478 10-10v-12.954c0-5.522-4.478-10-10-10s-10 4.478-10 10v12.954c0 5.523 4.478 10 10 10z"/><path d="m274.127 256.32c5.522 0 10-4.478 10-10v-12.954c0-5.522-4.478-10-10-10s-10 4.478-10 10v12.954c0 5.523 4.477 10 10 10z"/><path d="m502 442.281h-7.121v-215.094c0-11.172-9.089-20.262-20.261-20.262h-135.726v-69.449c7.986-4.417 13.407-12.927 13.407-22.68v-14.484c0-14.282-11.619-25.902-25.901-25.902h-78.043v-12.395c-.001-34.196-27.833-62.015-62.043-62.015h-16.639c-34.195 0-62.015 27.819-62.015 62.015v12.394h-78.071c-14.282 0-25.902 11.62-25.902 25.902v14.484c0 9.754 5.422 18.263 13.408 22.68v304.806h-7.093c-5.522 0-10 4.478-10 10v49.719c0 5.522 4.478 10 10 10h182.236c5.522 0 10-4.478 10-10s-4.478-10-10-10h-172.236v-29.719h472v29.719h-209.964c-5.522 0-10 4.478-10 10s4.478 10 10 10h219.964c5.522 0 10-4.478 10-10v-49.719c0-5.522-4.478-10-10-10zm-27.382-215.356c.117 0 .261.145.261.262v215.095h-36.947v-43.75h4.146c5.522 0 10-4.478 10-10s-4.478-10-10-10h-72.765c-5.522 0-10 4.478-10 10s4.478 10 10 10h4.145v43.75h-34.565v-215.357zm-56.686 171.606v43.75h-24.475v-43.75zm-300.274-257.834h120.696 80.537v255.777h-88.451v-31.504h16.645c5.522 0 10-4.478 10-10s-4.478-10-10-10h-145.357c-5.522 0-10 4.478-10 10s4.478 10 10 10h16.645v31.505h-81.28v-255.778zm20.714 224.273h26.034v77.312h-26.034zm46.034 0h26.034v77.312h-26.034zm46.034 51.505h88.451v25.807h-88.451zm95.957-322.067c3.199 0 5.901 2.703 5.901 5.902v14.484c0 3.199-2.702 5.902-5.901 5.902h-78.043v-26.288zm-198.739-32.393c0-23.167 18.848-42.015 42.015-42.015h16.639c23.183 0 42.043 18.848 42.043 42.015v58.683h-100.697zm-103.973 38.296c0-3.199 2.703-5.902 5.902-5.902h78.071v26.289h-78.071c-3.199 0-5.902-2.703-5.902-5.902zm13.408 316.164h81.279v25.807h-81.279z"/><path d="m154.139 80.349h13.867v13.839c0 5.522 4.478 10 10 10s10-4.478 10-10v-13.839h13.839c5.522 0 10-4.478 10-10s-4.478-10-10-10h-13.839v-13.839c0-5.522-4.478-10-10-10s-10 4.478-10 10v13.839h-13.867c-5.522 0-10 4.478-10 10s4.477 10 10 10z"/><path d="m81.885 313.976c5.522 0 10-4.478 10-10v-12.982c0-5.522-4.478-10-10-10s-10 4.478-10 10v12.982c0 5.522 4.477 10 10 10z"/><path d="m145.947 313.976c5.522 0 10-4.478 10-10v-12.982c0-5.522-4.478-10-10-10s-10 4.478-10 10v12.982c0 5.522 4.478 10 10 10z"/><path d="m210.037 313.976c5.522 0 10-4.478 10-10v-12.982c0-5.522-4.478-10-10-10s-10 4.478-10 10v12.982c0 5.522 4.478 10 10 10z"/><path d="m274.127 313.976c5.522 0 10-4.478 10-10v-12.982c0-5.522-4.478-10-10-10s-10 4.478-10 10v12.982c0 5.522 4.477 10 10 10z"/><path d="m374.84 292.263c5.522 0 10-4.478 10-10v-12.954c0-5.522-4.478-10-10-10s-10 4.478-10 10v12.954c0 5.522 4.477 10 10 10z"/><path d="m438.931 292.263c5.522 0 10-4.478 10-10v-12.954c0-5.522-4.478-10-10-10s-10 4.478-10 10v12.954c0 5.522 4.477 10 10 10z"/><path d="m374.84 349.918c5.522 0 10-4.478 10-10v-12.982c0-5.522-4.478-10-10-10s-10 4.478-10 10v12.982c0 5.522 4.477 10 10 10z"/><path d="m438.931 349.918c5.522 0 10-4.478 10-10v-12.982c0-5.522-4.478-10-10-10s-10 4.478-10 10v12.982c0 5.522 4.477 10 10 10z"/><path d="m237.136 492c-5.522 0-10 4.478-10 10s4.478 10 10 10h.057c5.522 0 9.972-4.478 9.972-10s-4.507-10-10.029-10z"/></g></svg>