<?xml version="1.0" encoding="iso-8859-1"?>
<!-- Generator: Adobe Illustrator 16.0.0, SVG Export Plug-In . SVG Version: 6.00 Build 0)  -->
<!DOCTYPE svg PUBLIC "-//W3C//DTD SVG 1.1//EN" "http://www.w3.org/Graphics/SVG/1.1/DTD/svg11.dtd">
<svg version="1.1" id="Capa_1" xmlns="http://www.w3.org/2000/svg" xmlns:xlink="http://www.w3.org/1999/xlink" x="0px" y="0px"
	 width="553.251px" height="553.251px" viewBox="0 0 553.251 553.251" style="enable-background:new 0 0 553.251 553.251;"
	 xml:space="preserve">
<g>
	<path d="M542.176,169.979c-29.682-27.846-60.588-46.818-97.92-60.282c14.076-18.36,20.808-40.698,35.496-59.364
		c3.366-4.284,3.06-12.24-3.672-13.464c-26.622-4.896-53.551-6.426-78.643,6.426c-37.943,19.584-39.168,30.906-53.244-19.584
		c-2.142-7.344-13.157-7.65-14.993,0l-45.9,45.594c-5.813,3.06-4.284-0.918,3.978-11.628c6.427-13.77,11.017-27.234,18.36-40.392
		c3.366-6.12-2.142-11.934-8.568-11.016c-44.369,7.038-83.231,19.584-114.749,49.878c-0.306-16.218-2.142-32.436-0.612-48.96
		c0.612-6.12-6.732-8.568-11.322-6.426c-17.748,8.874-31.518,18.36-46.818,30.906c-31.212,25.704-33.354,37.026-62.118-3.06
		c-3.978-5.508-12.546-3.672-12.852,3.366c-0.306,20.502-2.142,39.474,0.612,59.364c-7.038-1.224-12.852-2.448-16.83-3.366
		c-4.284-0.918-7.956,2.142-8.262,6.426c-1.53,23.562-7.344,44.37-3.978,67.32c-0.612,2.142,0.306,4.896,3.06,5.814
		c4.284,1.53,8.568,3.06,12.852,4.59c-6.426,13.464-2.754,32.13,1.836,45.9c-5.508,1.224-10.71,3.06-14.382,5.814
		c-1.224,0.918-1.224,2.754,0,3.366c18.972,12.546,62.73,2.142,84.15,0.612c26.316-1.836,66.402-0.918,92.718-12.852
		c68.85,13.464,138.924,23.562,207.773,35.802c-62.118,0-123.93,6.426-185.741,14.382c-30.906,3.978-62.118,8.874-93.024,13.465
		c-29.376,4.284-58.752,7.956-88.434,11.321c-27.54,3.061-17.136-44.37-15.606-55.998c1.224-9.18-12.24-13.464-14.076-3.978
		c-4.59,23.868-2.142,46.206-1.224,70.686c0.306,4.284,3.672,8.568,8.262,8.263c31.212-2.754,62.424-6.732,93.636-11.017l0,0
		c11.628,19.891,33.966,33.354,57.528,38.862c-41.616-10.098-83.844-17.442-126.378-20.196c-2.142-4.59-9.486-5.813-12.24-0.611
		c-2.142,0-4.284-0.307-6.426-0.307c-4.896-0.306-4.59,7.038,0,7.65c1.53,0.306,3.06,0.306,4.284,0.612
		c-4.284,19.277-5.814,38.25-6.12,58.14c0,4.59,3.672,7.344,7.956,7.956c5.508,0.612,11.016,1.53,16.524,2.448
		c-33.966,20.808,20.502,71.909,49.572,86.598c-0.918,0.612-1.53,1.53-1.53,3.06c2.142,18.973,9.18,37.026,10.098,56.305
		c0,3.672,2.754,6.426,6.426,6.426c83.232,2.448,166.463,11.934,249.696,7.038c4.283-0.306,7.037-3.06,7.344-7.344
		c1.224-14.688,3.06-28.152,1.224-42.229c7.65-0.306,14.994-0.306,22.645-0.306c5.508,0,7.649-4.896,6.731-9.18
		c3.061,3.365,10.404,3.672,12.853-2.448c7.956-20.196,12.852-41.311,18.972-62.424c1.224-3.979-1.53-7.956-5.202-9.181
		c-5.813-1.836-11.628-3.978-17.442-5.813c19.891-18.055,27.54-45.288,32.131-71.604c3.978-22.338,7.649-54.162,0.611-78.948
		c2.448,0,5.202,0,7.65,0c2.142,0,3.366-0.918,4.284-2.448c4.896,0.918,9.792,1.836,14.688,2.754c0,0.306,0,0.306,0,0.612
		c-0.306,6.12,8.874,8.568,11.628,3.06c15.606-30.6-0.306-55.998-33.966-77.418c29.988-4.896,60.588-4.896,90.882-4.896
		C543.4,183.75,547.684,174.875,542.176,169.979z M107.657,214.656c-15.3,1.53-40.086-0.612-60.282,1.836
		c-2.142-7.344-3.366-14.994-3.366-22.644c0-6.12,1.53-11.934,2.754-18.054c36.108,12.24,73.134,22.032,110.466,30.294
		C140.398,209.454,123.569,213.125,107.657,214.656z M252.089,285.342c13.158-0.306,26.009-0.306,39.167,0
		c-0.918,0.612-1.53,1.225-1.53,2.754c0.918,11.322,1.836,22.645,5.508,33.354c2.143,5.813,5.202,12.24,12.24,12.546
		s11.016-7.344,12.853-12.852c3.978-10.404,4.283-22.032,4.283-33.049c0-0.306,0-0.611,0-0.918
		c12.24,0.918,24.786,2.448,37.026,4.284c0.918,15.912,6.731,29.07-6.12,42.84c-10.71,11.628-28.152,14.688-43.146,14.688
		c-35.496,0-60.282-23.868-61.2-55.998C251.783,290.544,252.089,288.096,252.089,285.342z M167.633,302.784
		c0.306-1.224,0.612-2.142,0.918-3.061h0.306c-1.836,3.979,2.142,9.486,6.426,6.427c1.836-1.225,3.06-3.061,4.59-4.59
		c1.224-1.225,1.836-3.061,1.224-4.591c0.306-0.611,0.612-1.224,0.918-1.836c0.612-1.529-0.612-2.754-2.142-2.142
		c-0.612,0.306-1.224,0.612-1.836,0.918c-1.53-0.612-3.366,0-4.59,1.224c-1.53,1.53-3.366,3.061-4.59,4.59
		c0.918-2.447,1.836-4.59,2.754-7.037c4.284-0.612,8.874-0.919,13.158-1.53c-0.306,2.142-0.612,3.978-0.918,6.12
		c-0.306,2.754-0.612,9.485-3.978,10.71C176.201,309.21,166.103,308.598,167.633,302.784z M129.077,295.44
		c11.628-1.53,23.256-3.366,34.884-5.202c-1.836,5.508-7.65,9.792-5.814,16.218c0.918,3.979,3.978,9.18,7.344,11.322
		c3.672,2.142,9.486,2.448,13.77,2.142c14.994-1.224,16.83-17.748,18.972-30.6c14.994-1.53,29.988-2.754,45.288-3.672
		c-0.918,4.59-1.224,8.874-1.224,13.157C224.243,341.34,158.453,324.816,129.077,295.44z M323.999,538.404
		c-32.131,0.918-64.566-1.225-96.696-2.754c-25.704-1.225-51.408-2.754-77.418-3.979c-35.802-1.53-41.31-18.054-46.206-50.184
		c77.418,31.212,168.3,23.562,252.143,20.808C361.024,530.142,353.375,537.486,323.999,538.404z M398.356,485.772
		c-0.306,1.224-0.611,2.142-0.306,3.06c-1.224-1.224-2.754-2.142-5.202-2.142c-9.18,0-18.666,0.306-27.846,0.306
		c-1.836-0.612-3.672-0.612-5.508,0c-43.146,0.612-85.986,2.142-129.132,0.918c-30.294-0.918-60.282-3.672-89.658-9.486
		c-16.524-3.06-123.012-51.714-83.232-85.374c114.138,19.584,220.625,70.687,335.988,85.374c4.284,0.612,4.896-6.426,0.918-7.344
		c-67.32-15.605-132.192-37.944-197.676-59.364c-33.354-11.016-67.014-20.502-101.286-28.458
		c-45.594-10.71-62.73-6.426-52.02-58.752c71.604,9.486,140.76,29.376,209.61,50.796c35.801,11.017,70.992,22.95,106.488,34.885
		c16.218,5.508,32.13,11.016,48.042,16.523C421.918,432.528,401.722,477.204,398.356,485.772z M396.214,408.048
		c-73.746-25.397-149.021-52.632-225.521-70.992c28.764,6.12,58.752,0,72.828-22.338c6.732,28.765,33.354,48.042,68.85,49.878
		c20.502,0.918,42.228-5.813,56.304-21.113c11.322-12.24,15.3-33.049,9.486-49.267c2.142,0.307,4.283,0.612,6.119,1.225
		c9.486,1.836,13.771-12.853,3.979-14.688c-28.152-5.508-57.528-8.875-86.904-9.792c40.698-4.896,81.396-8.262,122.706-8.874
		C425.59,311.046,437.831,372.246,396.214,408.048z M466.9,248.01c-143.819-40.392-294.677-46.818-438.497-88.74
		c-2.142-22.644-2.754-58.752,20.196-53.856c17.748,3.978,35.496,7.038,53.55,10.098c47.124,8.568,94.554,16.218,141.372,25.398
		C304.415,153.149,452.518,171.815,466.9,248.01z M434.464,173.958c-3.366,0.612-5.202,2.754-5.814,5.508
		c-96.695-49.878-290.393-73.746-368.729-86.292c-1.224-14.688,0-28.764,1.224-43.452c8.874,10.404,18.666,20.196,26.928,31.212
		c2.142,2.754,7.956,2.754,10.098,0c18.972-23.562,38.862-42.534,64.26-59.67c3.366-2.142,4.59,51.102,4.284,54.468
		c-0.612,6.426,8.568,10.098,12.546,5.202c28.764-34.884,64.566-49.572,106.488-57.834c-7.65,16.524-13.77,33.966-24.48,48.654
		c-3.672,5.202,1.53,11.016,6.426,11.322c33.966,2.754,55.691-9.18,68.543-34.884c4.591,11.628,9.181,22.644,11.322,35.496
		c0.918,6.12,9.18,7.038,13.158,3.366c16.83-17.136,36.72-29.07,59.976-35.802c34.578-11.934,47.124-11.934,37.639-0.612
		c-10.71,19.278-17.748,40.698-33.967,56.304c-4.59,4.284-2.142,11.628,3.673,13.464c33.354,10.71,60.588,25.398,86.598,46.512
		C487.708,167.837,461.086,169.062,434.464,173.958z"/>
</g>
<g>
</g>
<g>
</g>
<g>
</g>
<g>
</g>
<g>
</g>
<g>
</g>
<g>
</g>
<g>
</g>
<g>
</g>
<g>
</g>
<g>
</g>
<g>
</g>
<g>
</g>
<g>
</g>
<g>
</g>
</svg>
